<?xml version="1.0" encoding="utf-8"?>
<!-- Generator: Adobe Illustrator 24.2.3, SVG Export Plug-In . SVG Version: 6.00 Build 0)  -->
<svg version="1.1" id="Layer_1" xmlns="http://www.w3.org/2000/svg" xmlns:xlink="http://www.w3.org/1999/xlink" x="0px" y="0px"
	 viewBox="0 0 1600 400" style="enable-background:new 0 0 1600 400;" xml:space="preserve">
<style type="text/css">
	.st0{fill-rule:evenodd;clip-rule:evenodd;fill:#EE0000;}
</style>
<desc>Created with Sketch.</desc>
<g id="Logos-_x2F_-F1-logo-red">
	<g id="Page-1">
		<g id="Fill-1">
			<path id="path-1_1_" class="st0" d="M1347.8,400h8.3v-38.6h0.1l13.9,38.6h7.2l13.9-38.6h0.1V400h8.3v-50h-12.2l-13.4,39.1h-0.1
				l-13.8-39.1h-12.3V400z M1301.7,357.6h15.8V400h8.8v-42.4h15.9V350h-40.5V357.6z M1200,400L1600,0h-240.8l-400,400H1200z
				 M1142.6,174.2H658.4c-147.6,0-173.4,7.8-236.6,71C362.7,304.4,266.7,400,266.7,400h209.8l50-50c32.9-32.9,49.9-36.3,119-36.3
				h357.8L1142.6,174.2z M415.4,216.7C371.7,257.9,276.7,350.2,225.5,400H0c0,0,180.7-180.2,281.1-279C384.6,22.5,436.2,0,626,0
				h690.9l-149.6,149.6H640C506.7,149.6,476.7,158.8,415.4,216.7z"/>
		</g>
	</g>
</g>
</svg>
